<mxfile host="app.diagrams.net" agent="Mozilla/5.0 (Windows NT 10.0; Win64; x64) AppleWebKit/537.36 (KHTML, like Gecko) Chrome/133.0.0.0 Safari/537.36" version="26.1.0">
  <diagram name="Page-1" id="U4Kk7XlxWSZbSjeu0Doj">
    <mxGraphModel dx="1434" dy="786" grid="0" gridSize="10" guides="1" tooltips="1" connect="1" arrows="1" fold="1" page="1" pageScale="1" pageWidth="850" pageHeight="1100" math="0" shadow="0">
      <root>
        <mxCell id="0" />
        <mxCell id="1" parent="0" />
        <mxCell id="-vt3uxv4kDpNqu-r_zBl-18" value="" style="edgeStyle=orthogonalEdgeStyle;rounded=0;orthogonalLoop=1;jettySize=auto;html=1;" edge="1" parent="1" source="-vt3uxv4kDpNqu-r_zBl-1" target="-vt3uxv4kDpNqu-r_zBl-3">
          <mxGeometry relative="1" as="geometry" />
        </mxCell>
        <mxCell id="-vt3uxv4kDpNqu-r_zBl-1" value="I2C Communication Protocol" style="rounded=1;whiteSpace=wrap;html=1;fillColor=light-dark(#00CC00,var(--ge-dark-color, #121212));" vertex="1" parent="1">
          <mxGeometry x="80" y="120" width="120" height="60" as="geometry" />
        </mxCell>
        <mxCell id="-vt3uxv4kDpNqu-r_zBl-2" value="Heart Rate Sensor" style="text;html=1;align=center;verticalAlign=middle;resizable=0;points=[];autosize=1;strokeColor=none;fillColor=none;" vertex="1" parent="1">
          <mxGeometry x="80" y="68" width="120" height="30" as="geometry" />
        </mxCell>
        <mxCell id="-vt3uxv4kDpNqu-r_zBl-3" value="Heart rate conversion to bpm" style="rounded=1;whiteSpace=wrap;html=1;fillColor=light-dark(#66B2FF,var(--ge-dark-color, #121212));" vertex="1" parent="1">
          <mxGeometry x="80" y="220" width="120" height="60" as="geometry" />
        </mxCell>
        <mxCell id="-vt3uxv4kDpNqu-r_zBl-4" value="Conductivity Sensor" style="text;html=1;align=center;verticalAlign=middle;resizable=0;points=[];autosize=1;strokeColor=none;fillColor=none;" vertex="1" parent="1">
          <mxGeometry x="280" y="68" width="130" height="30" as="geometry" />
        </mxCell>
        <mxCell id="-vt3uxv4kDpNqu-r_zBl-19" value="" style="edgeStyle=orthogonalEdgeStyle;rounded=0;orthogonalLoop=1;jettySize=auto;html=1;" edge="1" parent="1" source="-vt3uxv4kDpNqu-r_zBl-5" target="-vt3uxv4kDpNqu-r_zBl-6">
          <mxGeometry relative="1" as="geometry" />
        </mxCell>
        <mxCell id="-vt3uxv4kDpNqu-r_zBl-5" value="DAC input wave" style="rounded=1;whiteSpace=wrap;html=1;fillColor=light-dark(#66B2FF,var(--ge-dark-color, #121212));" vertex="1" parent="1">
          <mxGeometry x="285" y="120" width="120" height="60" as="geometry" />
        </mxCell>
        <mxCell id="-vt3uxv4kDpNqu-r_zBl-20" value="" style="edgeStyle=orthogonalEdgeStyle;rounded=0;orthogonalLoop=1;jettySize=auto;html=1;" edge="1" parent="1" source="-vt3uxv4kDpNqu-r_zBl-6" target="-vt3uxv4kDpNqu-r_zBl-9">
          <mxGeometry relative="1" as="geometry" />
        </mxCell>
        <mxCell id="-vt3uxv4kDpNqu-r_zBl-6" value="ADC output reading" style="rounded=1;whiteSpace=wrap;html=1;fillColor=light-dark(#FFFF00,var(--ge-dark-color, #121212));" vertex="1" parent="1">
          <mxGeometry x="285" y="220" width="120" height="60" as="geometry" />
        </mxCell>
        <mxCell id="-vt3uxv4kDpNqu-r_zBl-7" value="I2C Communication Protocol" style="rounded=1;whiteSpace=wrap;html=1;fillColor=light-dark(#00CC00,var(--ge-dark-color, #121212));" vertex="1" parent="1">
          <mxGeometry x="490" y="120" width="120" height="60" as="geometry" />
        </mxCell>
        <mxCell id="-vt3uxv4kDpNqu-r_zBl-8" value="Battery Management System" style="text;html=1;align=center;verticalAlign=middle;resizable=0;points=[];autosize=1;strokeColor=none;fillColor=none;" vertex="1" parent="1">
          <mxGeometry x="460" y="68" width="180" height="30" as="geometry" />
        </mxCell>
        <mxCell id="-vt3uxv4kDpNqu-r_zBl-9" value="Interrupt Service Routine" style="rounded=1;whiteSpace=wrap;html=1;fillColor=light-dark(#FFFF00,var(--ge-dark-color, #121212));" vertex="1" parent="1">
          <mxGeometry x="285" y="320" width="120" height="60" as="geometry" />
        </mxCell>
        <mxCell id="-vt3uxv4kDpNqu-r_zBl-11" value="Bluetooth low energy communication" style="rounded=1;whiteSpace=wrap;html=1;fillColor=light-dark(#FF3333,var(--ge-dark-color, #121212));" vertex="1" parent="1">
          <mxGeometry x="700" y="120" width="120" height="60" as="geometry" />
        </mxCell>
        <mxCell id="-vt3uxv4kDpNqu-r_zBl-12" value="Microcontroller" style="text;html=1;align=center;verticalAlign=middle;resizable=0;points=[];autosize=1;strokeColor=none;fillColor=none;" vertex="1" parent="1">
          <mxGeometry x="710" y="68" width="100" height="30" as="geometry" />
        </mxCell>
        <mxCell id="-vt3uxv4kDpNqu-r_zBl-13" value="Completed" style="text;html=1;align=center;verticalAlign=middle;resizable=0;points=[];autosize=1;strokeColor=none;fillColor=#00CC00;" vertex="1" parent="1">
          <mxGeometry x="583" y="268" width="76" height="26" as="geometry" />
        </mxCell>
        <mxCell id="-vt3uxv4kDpNqu-r_zBl-14" value="In Development" style="text;html=1;align=center;verticalAlign=middle;resizable=0;points=[];autosize=1;strokeColor=none;fillColor=#FFFF00;" vertex="1" parent="1">
          <mxGeometry x="583" y="320" width="102" height="26" as="geometry" />
        </mxCell>
        <mxCell id="-vt3uxv4kDpNqu-r_zBl-15" value="In Testing" style="text;html=1;align=center;verticalAlign=middle;resizable=0;points=[];autosize=1;strokeColor=none;fillColor=#66B2FF;" vertex="1" parent="1">
          <mxGeometry x="583" y="294" width="69" height="26" as="geometry" />
        </mxCell>
        <mxCell id="-vt3uxv4kDpNqu-r_zBl-16" value="Not Started" style="text;html=1;align=center;verticalAlign=middle;resizable=0;points=[];autosize=1;strokeColor=none;fillColor=#FF3333;" vertex="1" parent="1">
          <mxGeometry x="583" y="346" width="79" height="26" as="geometry" />
        </mxCell>
        <mxCell id="-vt3uxv4kDpNqu-r_zBl-22" value="&lt;b&gt;&lt;font style=&quot;font-size: 18px;&quot;&gt;Legend&lt;/font&gt;&lt;/b&gt;" style="rounded=0;whiteSpace=wrap;html=1;align=center;" vertex="1" parent="1">
          <mxGeometry x="583" y="217" width="75" height="28" as="geometry" />
        </mxCell>
      </root>
    </mxGraphModel>
  </diagram>
</mxfile>
